<svg xmlns="http://www.w3.org/2000/svg" xmlns:xlink="http://www.w3.org/1999/xlink" viewBox="0 0 316.14 290.15"><defs><style>.cls-1{fill:none;}.cls-2{isolation:isolate;}.cls-13,.cls-3,.cls-77{opacity:0.1;}.cls-4{fill:#ff9c00;}.cls-5{fill:#ffc000;}.cls-6{fill:#ea7500;}.cls-7{fill:#ebf5ff;}.cls-8{fill:#def2ff;}.cls-9{fill:#c3dff4;}.cls-10{fill:#d7e9ff;}.cls-11{fill:#b8d2e8;}.cls-12{fill:#afd2e8;}.cls-14{fill:#85a9ff;}.cls-15{clip-path:url(#clip-path);}.cls-16{fill:#318385;}.cls-17{fill:#33888a;}.cls-18{fill:#358d8f;}.cls-19{fill:#379294;}.cls-20{fill:#399799;}.cls-21{fill:#3b9c9e;}.cls-22{fill:#3da1a3;}.cls-23{fill:#3fa6a8;}.cls-24{fill:#41abad;}.cls-25{fill:#43b0b3;}.cls-26{fill:#44b5b8;}.cls-27{clip-path:url(#clip-path-2);}.cls-28{fill:#858585;}.cls-29{fill:#338789;}.cls-30{fill:#898989;}.cls-31{clip-path:url(#clip-path-3);}.cls-32{fill:#949494;}.cls-33{fill:#999;}.cls-34{fill:#9e9e9e;}.cls-35{fill:#a3a3a3;}.cls-36{fill:#a8a8a8;}.cls-37{fill:#adadad;}.cls-38{fill:#b3b3b3;}.cls-39{fill:#b8b8b8;}.cls-40{fill:#8f8f8f;}.cls-41{fill:#8a8a8a;}.cls-42{fill:#dcdcdc;}.cls-43{fill:#4a79d8;}.cls-44{clip-path:url(#clip-path-4);}.cls-45{clip-path:url(#clip-path-5);}.cls-46{clip-path:url(#clip-path-6);}.cls-47{clip-path:url(#clip-path-7);}.cls-126,.cls-48,.cls-49,.cls-50,.cls-51,.cls-52,.cls-53,.cls-54,.cls-55{fill:#e3f1fe;}.cls-49{opacity:0.5;}.cls-50{opacity:0.42;}.cls-51{opacity:0.34;}.cls-52{opacity:0.25;}.cls-53{opacity:0.17;}.cls-54{opacity:0.08;}.cls-119,.cls-137,.cls-55,.cls-98{opacity:0;}.cls-104,.cls-119,.cls-120,.cls-121,.cls-122,.cls-123,.cls-124,.cls-125,.cls-141,.cls-56,.cls-72,.cls-77{fill:#fff;}.cls-56{opacity:0.3;}.cls-57{clip-path:url(#clip-path-8);}.cls-58{fill:#6e0049;}.cls-59{fill:#72004c;}.cls-60{fill:#76004f;}.cls-61{fill:#7a0052;}.cls-62{fill:#7f0055;}.cls-63{fill:#830057;}.cls-64{fill:#87005a;}.cls-65{fill:#8b005d;}.cls-66{fill:#8f0060;}.cls-67{fill:#940063;}.cls-68{fill:#980066;}.cls-69{clip-path:url(#clip-path-9);}.cls-70{clip-path:url(#clip-path-10);}.cls-71{fill:#71004c;}.cls-73{fill:#ffb000;}.cls-74{fill:#aeb9e5;}.cls-75{fill:#c2caf9;}.cls-76{fill:#8b9acc;}.cls-78{clip-path:url(#clip-path-11);}.cls-79{clip-path:url(#clip-path-12);}.cls-80{clip-path:url(#clip-path-13);}.cls-81{fill:#d3008d;}.cls-82{fill:#b70284;}.cls-83{fill:#ff2d9c;}.cls-84{fill:#ff55b6;}.cls-85{clip-path:url(#clip-path-14);}.cls-86{clip-path:url(#clip-path-15);}.cls-87{clip-path:url(#clip-path-16);}.cls-88{fill:#6e0095;}.cls-89{fill:#4e0169;}.cls-90{fill:#c050ef;}.cls-91,.cls-98{fill:#b839e3;}.cls-92{fill:#631f7a;}.cls-93{fill:#ffa300;}.cls-94{fill:#add3ea;}.cls-95{fill:#608eea;}.cls-96{fill:#487fd8;}.cls-97{mix-blend-mode:overlay;}.cls-125,.cls-97{opacity:0.7;}.cls-99{fill:#c45ae8;opacity:0.08;}.cls-100{fill:#d07bec;opacity:0.17;}.cls-101{fill:#dc9cf1;opacity:0.25;}.cls-102{fill:#e7bdf6;opacity:0.33;}.cls-103{fill:#f3defa;opacity:0.42;}.cls-104,.cls-131{opacity:0.5;}.cls-105{fill:#615a8e;}.cls-106{fill:#484475;}.cls-107{fill:#171718;}.cls-108{fill:#282528;}.cls-109{fill:#ffaa83;}.cls-110{fill:#f29c79;}.cls-111{fill:#f2c9f2;}.cls-112{fill:#ffe9fe;}.cls-113{fill:#f79f7c;}.cls-114{fill:#221d19;}.cls-115{fill:#e3b1e5;}.cls-116{fill:#709dda;}.cls-117{fill:#f0f8ff;}.cls-118{fill:#aecfff;}.cls-120{opacity:0.12;}.cls-121{opacity:0.23;}.cls-122{opacity:0.35;}.cls-123{opacity:0.47;}.cls-124{opacity:0.58;}.cls-126{opacity:0.4;}.cls-127{opacity:0.83;}.cls-128{fill:#e2effe;opacity:0.5;}.cls-129{opacity:0.67;}.cls-130{fill:#e2edfd;opacity:0.6;}.cls-132{fill:#e2ebfd;opacity:0.7;}.cls-133{opacity:0.33;}.cls-134{fill:#e1e9fd;opacity:0.8;}.cls-135{opacity:0.17;}.cls-136{fill:#e1e7fc;opacity:0.9;}.cls-138{fill:#e0e5fc;}.cls-139{fill:#5bb0ff;}.cls-140{fill:#3d93ff;}.cls-141{opacity:0.51;}.cls-142{fill:#fafdff;opacity:0.6;}.cls-143{fill:#f6faff;opacity:0.68;}.cls-144{fill:#f1f8ff;opacity:0.76;}.cls-145{fill:#ecf6fe;opacity:0.84;}.cls-146{fill:#e8f3fe;opacity:0.92;}</style><clipPath id="clip-path"><path class="cls-1" d="M80.59,168.88q0-6.58,0-13.16a1,1,0,0,0-.57-.81,3.07,3.07,0,0,0-2.83,0l0,13.15a3.18,3.18,0,0,1,2.82,0A1,1,0,0,1,80.59,168.88Z"/></clipPath><clipPath id="clip-path-2"><path class="cls-1" d="M80.59,168.88q0-6.58,0-13.16a1,1,0,0,1-.59.82l0,13.16A1,1,0,0,0,80.59,168.88Z"/></clipPath><clipPath id="clip-path-3"><path class="cls-1" d="M44.46,174.26q0,6.59,0,13.16a1,1,0,0,0,.58.81,3.13,3.13,0,0,0,2.83,0l0-13.16a3.13,3.13,0,0,1-2.83,0A1,1,0,0,1,44.46,174.26Z"/></clipPath><clipPath id="clip-path-4"><path class="cls-1" d="M188.44,251a10.91,10.91,0,0,1,5.33-1.28c0-4.38,0-8.77,0-13.16a10.88,10.88,0,0,0-5.32,1.28C188.41,241.77,188.43,247,188.44,251Z"/></clipPath><clipPath id="clip-path-5"><path class="cls-1" d="M199.08,251a3.71,3.71,0,0,1,2.19,3.06l0-13.16a3.74,3.74,0,0,0-2.18-3.06,10.85,10.85,0,0,0-5.32-1.28c0,4.39,0,8.78,0,13.16h0A10.78,10.78,0,0,1,199.08,251Z"/></clipPath><clipPath id="clip-path-6"><path class="cls-1" d="M186.22,254.08a3.78,3.78,0,0,1,2.22-3.1l0-13.16a3.77,3.77,0,0,0-2.23,3.1C186.19,244.87,186.21,250.13,186.22,254.08Z"/></clipPath><clipPath id="clip-path-7"><path class="cls-1" d="M186.18,240.92q0,6.59,0,13.16a3.71,3.71,0,0,0,2.19,3.06,11.74,11.74,0,0,0,10.64,0,3.72,3.72,0,0,0,2.22-3.1q0-6.58,0-13.16A3.75,3.75,0,0,1,199,244a11.71,11.71,0,0,1-10.64,0A3.74,3.74,0,0,1,186.18,240.92Z"/></clipPath><clipPath id="clip-path-8"><path class="cls-1" d="M125.41,54.22l-.31,111.62a10.7,10.7,0,0,0-9.67,0l.32-111.62A10.68,10.68,0,0,1,125.41,54.22Z"/></clipPath><clipPath id="clip-path-9"><path class="cls-1" d="M113.43,168.63,113.75,57a3.4,3.4,0,0,1,2-2.79l-.32,111.62A3.4,3.4,0,0,0,113.43,168.63Z"/></clipPath><clipPath id="clip-path-10"><path class="cls-1" d="M113.43,168.63,113.75,57a3.41,3.41,0,0,0,2,2.82l-.31,111.62A3.42,3.42,0,0,1,113.43,168.63Z"/></clipPath><clipPath id="clip-path-11"><path class="cls-1" d="M99.91,70.87l-.32,111.62a10.64,10.64,0,0,0-9.67,0l.31-111.62A10.66,10.66,0,0,1,99.91,70.87Z"/></clipPath><clipPath id="clip-path-12"><path class="cls-1" d="M87.93,185.28l.31-111.62a3.41,3.41,0,0,1,2-2.79l-.31,111.62A3.39,3.39,0,0,0,87.93,185.28Z"/></clipPath><clipPath id="clip-path-13"><path class="cls-1" d="M87.93,185.28l.31-111.62a3.43,3.43,0,0,0,2,2.82L89.94,188.1A3.39,3.39,0,0,1,87.93,185.28Z"/></clipPath><clipPath id="clip-path-14"><path class="cls-1" d="M71.52,84,71.2,195.57a10.7,10.7,0,0,0-9.67,0L61.85,84A10.64,10.64,0,0,1,71.52,84Z"/></clipPath><clipPath id="clip-path-15"><path class="cls-1" d="M59.54,198.37l.31-111.62a3.41,3.41,0,0,1,2-2.79l-.32,111.61A3.4,3.4,0,0,0,59.54,198.37Z"/></clipPath><clipPath id="clip-path-16"><path class="cls-1" d="M59.54,198.37l.31-111.62a3.46,3.46,0,0,0,2,2.82l-.32,111.62A3.41,3.41,0,0,1,59.54,198.37Z"/></clipPath></defs><g class="cls-2"><g id="Layer_2" data-name="Layer 2"><g id="Layer_1-2" data-name="Layer 1"><g class="cls-3"><polygon points="249.61 224.47 111.87 139.12 173.82 103.17 316.14 185.87 249.61 224.47"/></g><g class="cls-2"><polygon class="cls-4" points="283.13 190.21 289.26 186.65 289.57 77.15 283.43 80.71 283.13 190.21"/><polygon class="cls-5" points="283.43 80.71 289.57 77.15 155.93 0 149.8 3.56 283.43 80.71"/><polygon class="cls-6" points="149.8 3.56 149.48 113.05 283.13 190.21 283.43 80.71 149.8 3.56"/></g><g class="cls-2"><polygon class="cls-7" points="274.51 192.38 280.48 188.91 280.78 82.39 274.81 85.85 274.51 192.38"/><polygon class="cls-8" points="274.81 85.85 280.78 82.39 150.77 7.32 144.79 10.79 274.81 85.85"/><polygon class="cls-9" points="144.79 10.79 144.5 117.32 274.51 192.38 274.81 85.85 144.79 10.79"/></g><path class="cls-10" d="M212.79,50.44s20.84,27.12,63.06,39.13l-2.6,107s-34.37-.22-60.46-33.51Z"/><path class="cls-7" d="M212.79,50.44s11.33,33.29,53.54,45.31L264.28,196.3s-25.4,0-51.49-33.29Z"/><path class="cls-10" d="M212.79,50.44s-2.46,34.44,39.75,46.44v96.91s-31.88-3.58-39.75-30.78Z"/><path class="cls-7" d="M212.79,50.44s-30.8-3.38-63-33l1.49,110.09S173,165,212.79,163Z"/><path class="cls-11" d="M212.79,50.44s-33.71,5.76-65.9-23.83V125.3S173,165,212.79,163Z"/><path class="cls-7" d="M212.79,50.44S177.86,56.2,144.5,36.18l4.42,99.08s24,31.24,63.87,27.75Z"/><path class="cls-12" d="M200.45,72c3.64,0,6-.2,6.3-.23l-.32-3.39c-.33,0-34.48,2.47-57-15.07V54.7C167.17,68.51,189.45,72,200.45,72Z"/><path class="cls-12" d="M199.79,87.57c3.65,0,6-.2,6.3-.23l-.31-3.4c-.33,0-34.48,2.48-56.95-15.06V70.3C166.52,84.11,188.8,87.57,199.79,87.57Z"/><path class="cls-12" d="M199.79,105.86c3.64,0,6-.2,6.3-.24l-.31-3.39c-.33,0-34.49,2.47-56.95-15.06v1.42C166.52,102.4,188.8,105.86,199.79,105.86Z"/><path class="cls-12" d="M199.79,124.54c3.64,0,6-.2,6.3-.23l-.31-3.4c-.34,0-34.49,2.48-56.95-15v1.41C166.52,121.08,188.8,124.54,199.79,124.54Z"/><path class="cls-12" d="M201,142.52c3.65,0,6-.2,6.3-.23l-.31-3.4c-.34,0-34.48,2.48-57-15v1.41C167.7,139.07,190,142.52,201,142.52Z"/><path class="cls-12" d="M216.46,82.39s12.27,15.7,27.86,20.13v3.34A76.44,76.44,0,0,1,216.46,84Z"/><path class="cls-12" d="M216.46,96s12.27,15.7,27.86,20.14v3.33a76.3,76.3,0,0,1-27.86-21.91Z"/><path class="cls-12" d="M216.46,113.06s12.27,15.7,27.86,20.14v3.33a76.3,76.3,0,0,1-27.86-21.91Z"/><path class="cls-12" d="M216.46,130.1s12.27,15.7,27.86,20.14v3.33a76.3,76.3,0,0,1-27.86-21.91Z"/><path class="cls-12" d="M216.46,150.55s12.27,15.71,27.86,20.14V174a76.34,76.34,0,0,1-27.86-21.9Z"/><path class="cls-13" d="M242.63,232.41l-7.71-4.48-124.58-72.4-2.13-1.24c-5.75-3.34-15.09-3.34-20.87,0L12.6,197.44c-5.78,3.33-5.82,8.75-.07,12.08l2.13,1.25,124.58,72.4,7.71,4.47c5.75,3.35,15.1,3.35,20.88,0l74.73-43.14C248.35,241.16,248.38,235.75,242.63,232.41Z"/><path class="cls-14" d="M238.84,226.23l0,13.17c2.75-1.59,4.12-3.67,4.11-5.76l0-13.16c0,2.09-1.37,4.17-4.12,5.75Z"/><g class="cls-2"><g class="cls-15"><g class="cls-2"><path class="cls-16" d="M77.15,154.91l0,13.15.28-.13,0-13.16a1.55,1.55,0,0,0-.29.14Z"/><path class="cls-17" d="M77.44,154.77l0,13.16a1,1,0,0,1,.25-.08l0-13.17-.23.09Z"/><path class="cls-18" d="M77.67,154.68l0,13.17.21-.06,0-13.16-.22.05Z"/><path class="cls-19" d="M77.89,154.63l0,13.16.19,0,0-13.16-.19,0Z"/><path class="cls-20" d="M78.08,154.6l0,13.16.19,0,0-13.16-.2,0Z"/><path class="cls-21" d="M78.28,154.58l0,13.16h.21l0-13.16Z"/><path class="cls-22" d="M78.47,154.57l0,13.16h.2l0-13.16Z"/><path class="cls-23" d="M78.68,154.57l0,13.16.22,0,0-13.16a.78.78,0,0,0-.22,0Z"/><path class="cls-24" d="M78.9,154.59l0,13.16a1.9,1.9,0,0,1,.25,0l0-13.16a1.15,1.15,0,0,0-.26,0Z"/><path class="cls-25" d="M79.16,154.62l0,13.16.39.09,0-13.16a2.22,2.22,0,0,0-.37-.09Z"/><path class="cls-26" d="M79.53,154.71l0,13.16a2.8,2.8,0,0,1,.43.19l0,0,0-13.16h0a2.28,2.28,0,0,0-.45-.2Z"/><path class="cls-25" d="M80,154.92l0,13.16a1,1,0,0,1,.26.19l0-13.16a1.09,1.09,0,0,0-.26-.19Z"/><path class="cls-24" d="M80.25,155.11l0,13.16a.74.74,0,0,1,.12.13l0-13.16a.74.74,0,0,0-.12-.13Z"/><path class="cls-23" d="M80.37,155.24l0,13.16.08.12,0-13.16a.5.5,0,0,0-.08-.12Z"/><path class="cls-22" d="M80.45,155.36l0,13.16.06.11,0-13.16-.06-.11Z"/><path class="cls-21" d="M80.51,155.47l0,13.16,0,.11,0-13.16,0-.11Z"/><path class="cls-20" d="M80.54,155.58l0,13.16a.49.49,0,0,1,0,.12l0-13.16a.49.49,0,0,0,0-.12Z"/><path class="cls-19" d="M80.55,155.7l0,13.16v0l0-13.16v0Z"/></g></g></g><g class="cls-2"><g class="cls-27"><g class="cls-2"><path class="cls-28" d="M80,156.54l0,13.16a1,1,0,0,0,.59-.82l0-13.16a1,1,0,0,1-.59.82Z"/></g></g></g><polygon class="cls-29" points="45.05 173.44 45.09 186.6 77.19 168.06 77.15 154.91 45.05 173.44"/><polygon class="cls-30" points="47.87 175.07 47.91 188.23 80 169.7 79.96 156.54 47.87 175.07"/><g class="cls-2"><g class="cls-31"><g class="cls-2"><path class="cls-32" d="M44.46,174.26l0,13.16v0l0-13.16v0Z"/><path class="cls-33" d="M44.46,174.28l0,13.16a.41.41,0,0,0,0,.11l0-13.16a.52.52,0,0,1,0-.11Z"/><path class="cls-34" d="M44.48,174.39l0,13.16,0,.11,0-13.16a.35.35,0,0,1,0-.11Z"/><path class="cls-35" d="M44.51,174.5l0,13.16a.75.75,0,0,0,.07.12l0-13.17a1.17,1.17,0,0,1-.05-.11Z"/><path class="cls-36" d="M44.56,174.61l0,13.17a.67.67,0,0,0,.06.12l0-13.17-.08-.12Z"/><path class="cls-37" d="M44.64,174.73l0,13.17.13.13,0-13.16a.83.83,0,0,1-.13-.14Z"/><path class="cls-38" d="M44.77,174.87l0,13.16a1.14,1.14,0,0,0,.25.18l0-13.15a1.26,1.26,0,0,1-.25-.19Z"/><path class="cls-39" d="M45,175.06l0,13.15,0,0a2.55,2.55,0,0,0,.44.2l0-13.17a2,2,0,0,1-.44-.19Z"/><path class="cls-38" d="M45.48,175.26l0,13.17c.12,0,.25.07.38.09l0-13.16-.38-.1Z"/><path class="cls-37" d="M45.86,175.36l0,13.16a1.9,1.9,0,0,0,.25,0l0-13.16-.26,0Z"/><path class="cls-36" d="M46.12,175.39l0,13.16.22,0,0-13.16-.21,0Z"/><path class="cls-35" d="M46.33,175.41l0,13.16h.2l0-13.16Z"/><path class="cls-34" d="M46.54,175.41l0,13.16h.2l0-13.16Z"/><path class="cls-33" d="M46.73,175.4l0,13.16.2,0,0-13.15-.2,0Z"/><path class="cls-32" d="M46.93,175.38l0,13.15a1.25,1.25,0,0,0,.19,0l0-13.16-.19,0Z"/><path class="cls-40" d="M47.12,175.34l0,13.16.21-.05,0-13.16-.21.05Z"/><path class="cls-41" d="M47.33,175.29l0,13.16.24-.08,0-13.16-.25.08Z"/><path class="cls-28" d="M47.58,175.21l0,13.16a2.09,2.09,0,0,0,.3-.14l0-13.16-.29.14Z"/></g></g></g><path class="cls-42" d="M45.05,173.44a.86.86,0,0,0,0,1.63,3.13,3.13,0,0,0,2.83,0L80,156.54c.78-.45.79-1.18,0-1.63a3.07,3.07,0,0,0-2.83,0Z"/><path class="cls-14" d="M17.5,187.78c0,.07,0,.13,0,.2a1.37,1.37,0,0,0,0,.19,1.52,1.52,0,0,0,0,.21c0,.06,0,.12,0,.18s0,.14,0,.2a1.8,1.8,0,0,1,.05.19,1.59,1.59,0,0,1,.07.2,1.34,1.34,0,0,0,.07.18,1.89,1.89,0,0,0,.09.21.76.76,0,0,0,.09.18,1,1,0,0,0,.1.21s.05.11.09.17l.15.24.1.15.2.27a.94.94,0,0,0,.09.12q.16.21.36.42l.11.11c.1.11.2.21.31.31l.14.14.21.18.19.16.22.17.21.16c.07.05.16.1.23.16l.23.15.25.16.32.2,2,1.17,0,13.15-2-1.16-.17-.1-.15-.09A2.46,2.46,0,0,0,21,206l-.2-.14-.25-.18a1.33,1.33,0,0,1-.19-.14l-.24-.18a1.37,1.37,0,0,0-.18-.16l-.2-.18-.09-.07-.06-.06c-.12-.11-.22-.22-.32-.32l-.11-.11c-.12-.14-.25-.28-.36-.42v0l-.07-.1-.2-.27a.71.71,0,0,0-.1-.14l-.15-.25a.25.25,0,0,1,0-.07l-.05-.1-.12-.21c0-.06-.06-.12-.08-.17l-.09-.22,0-.09a.32.32,0,0,1,0-.09c0-.06,0-.13-.07-.2a1.21,1.21,0,0,1,0-.18,1.6,1.6,0,0,1-.05-.21l0-.11a.22.22,0,0,0,0-.08,1.2,1.2,0,0,1,0-.2l0-.19a1.27,1.27,0,0,1,0-.2s0-.09,0-.13v-.12q0-6.58,0-13.16A1.06,1.06,0,0,0,17.5,187.78Z"/><path class="cls-9" d="M21.6,181.77c-5.47,3.16-5.5,8.28-.07,11.43l2,1.17,90.39-52.19-2-1.16c-5.42-3.16-14.25-3.16-19.71,0Z"/><path class="cls-43" d="M47.87,175.07a3.13,3.13,0,0,1-2.83,0,.86.86,0,0,1,0-1.63l32.1-18.53a3.07,3.07,0,0,1,2.83,0c.77.45.76,1.18,0,1.63L47.87,175.07Z"/><path class="cls-14" d="M47.87,175.07,80,156.54a1.19,1.19,0,0,0,.29-.25,2.18,2.18,0,0,0-.27-.24,3.13,3.13,0,0,0-2.83,0l-32.1,18.54a1.13,1.13,0,0,0-.28.24,1.28,1.28,0,0,0,.27.24A3.13,3.13,0,0,0,47.87,175.07Z"/><polygon class="cls-29" points="23.54 194.37 23.58 207.52 113.97 155.34 113.93 142.18 23.54 194.37"/><polygon class="cls-30" points="141.24 262.77 141.28 275.93 231.66 223.75 231.62 210.58 141.24 262.77"/><g class="cls-2"><g class="cls-44"><g class="cls-2"><path class="cls-16" d="M188.41,237.82l0,13.16a9,9,0,0,1,1.08-.52l0-13.16a7.19,7.19,0,0,0-1.08.52Z"/><path class="cls-17" d="M189.49,237.3l0,13.16c.3-.11.61-.22.92-.31l0-13.16c-.32.09-.62.2-.92.31Z"/><path class="cls-18" d="M190.41,237l0,13.16c.25-.07.52-.14.78-.19l0-13.16c-.27,0-.53.12-.78.19Z"/><path class="cls-19" d="M191.19,236.8l0,13.16q.38-.08.75-.12l0-13.17c-.26,0-.51.08-.75.13Z"/><path class="cls-20" d="M191.94,236.67l0,13.17c.24,0,.49-.07.74-.09l0-13.16c-.25,0-.49,0-.73.08Z"/><path class="cls-21" d="M192.67,236.59l0,13.16.74,0,0-13.16c-.25,0-.5,0-.74,0Z"/><path class="cls-22" d="M193.41,236.55l0,13.16c.25,0,.51,0,.77,0l-.05-13.16c-.25,0-.5,0-.76,0Z"/></g></g></g><g class="cls-2"><g class="cls-45"><g class="cls-2"><path class="cls-22" d="M193.41,236.55l0,13.16c.25,0,.51,0,.77,0l-.05-13.16c-.25,0-.5,0-.76,0Z"/><path class="cls-23" d="M194.17,236.55l.05,13.16.83.06,0-13.16c-.28,0-.56-.05-.85-.06Z"/><path class="cls-24" d="M195,236.61l0,13.16a9.66,9.66,0,0,1,1,.13l0-13.16c-.31-.06-.64-.1-.95-.13Z"/><path class="cls-25" d="M196,236.74l0,13.16a12.45,12.45,0,0,1,1.43.35l0-13.16a10.67,10.67,0,0,0-1.43-.35Z"/><path class="cls-26" d="M197.4,237.09l0,13.16a9.06,9.06,0,0,1,1.64.73.31.31,0,0,0,.1.05l-.05-13.16-.08-.05a9.48,9.48,0,0,0-1.65-.73Z"/><path class="cls-25" d="M199.13,237.87l.05,13.16a6,6,0,0,1,.95.71l0-13.16a5.69,5.69,0,0,0-1-.71Z"/><path class="cls-24" d="M200.09,238.58l0,13.16a4.25,4.25,0,0,1,.46.5l0-13.16a5.47,5.47,0,0,0-.47-.5Z"/><path class="cls-23" d="M200.56,239.08l0,13.16a2.93,2.93,0,0,1,.3.45l0-13.16a3.91,3.91,0,0,0-.3-.45Z"/><path class="cls-22" d="M200.86,239.53l0,13.16a4.25,4.25,0,0,1,.21.43l0-13.16a2.39,2.39,0,0,0-.2-.43Z"/><path class="cls-21" d="M201.06,240l0,13.16a3.31,3.31,0,0,1,.12.42l0-13.16a2.21,2.21,0,0,0-.12-.42Z"/><path class="cls-20" d="M201.18,240.38l0,13.16a2.18,2.18,0,0,1,.05.43l0-13.15a3.12,3.12,0,0,0,0-.44Z"/><path class="cls-19" d="M201.23,240.82l0,13.15V254l0-13.16v-.06Z"/></g></g></g><g class="cls-2"><g class="cls-46"><g class="cls-2"><path class="cls-16" d="M186.18,240.92l0,13.16a3.78,3.78,0,0,1,2.22-3.1l0-13.16a3.77,3.77,0,0,0-2.23,3.1Z"/></g></g></g><g class="cls-2"><g class="cls-47"><g class="cls-2"><path class="cls-32" d="M186.18,240.92l0,13.16v.07l0-13.16v-.07Z"/><path class="cls-33" d="M186.18,241l0,13.16c0,.14,0,.29.05.43l0-13.16a3,3,0,0,1-.06-.43Z"/><path class="cls-34" d="M186.24,241.42l0,13.16a2.9,2.9,0,0,0,.12.42l0-13.15a1.73,1.73,0,0,1-.12-.43Z"/><path class="cls-35" d="M186.36,241.85l0,13.15a3.36,3.36,0,0,0,.2.43l0-13.16a2.67,2.67,0,0,1-.2-.42Z"/><path class="cls-36" d="M186.56,242.27l0,13.16a4,4,0,0,0,.31.45l0-13.16a2.58,2.58,0,0,1-.31-.45Z"/><path class="cls-37" d="M186.87,242.72l0,13.16a3.63,3.63,0,0,0,.47.5l0-13.15a4.24,4.24,0,0,1-.46-.51Z"/><path class="cls-38" d="M187.33,243.23l0,13.15a5.5,5.5,0,0,0,.94.71l0-13.16a6.16,6.16,0,0,1-.95-.7Z"/><path class="cls-39" d="M188.28,243.93l0,13.16.1.05a7.94,7.94,0,0,0,1.65.73l0-13.16a8.51,8.51,0,0,1-1.65-.73l-.09,0Z"/><path class="cls-38" d="M190,244.71l0,13.16a14.22,14.22,0,0,0,1.43.36l0-13.17a9.34,9.34,0,0,1-1.43-.35Z"/><path class="cls-37" d="M191.45,245.06l0,13.17,1,.13,0-13.16c-.31,0-.64-.08-1-.14Z"/><path class="cls-36" d="M192.4,245.2l0,13.16c.27,0,.55,0,.83.05l0-13.16c-.28,0-.56,0-.84-.05Z"/><path class="cls-35" d="M193.24,245.25l0,13.16h.77l0-13.15Z"/><path class="cls-34" d="M194,245.26l0,13.15a6.12,6.12,0,0,0,.74,0l0-13.16c-.25,0-.5,0-.74,0Z"/><path class="cls-33" d="M194.75,245.21l0,13.16a6,6,0,0,0,.73-.08l0-13.16a5.82,5.82,0,0,1-.73.08Z"/><path class="cls-32" d="M195.48,245.13l0,13.16c.25,0,.49-.07.74-.12l0-13.16c-.24.05-.49.09-.74.12Z"/><path class="cls-40" d="M196.22,245l0,13.16c.27-.06.53-.12.79-.2l0-13.16-.79.2Z"/><path class="cls-41" d="M197,244.81l0,13.16a8.85,8.85,0,0,0,.91-.31l0-13.15a8.08,8.08,0,0,1-.91.3Z"/><path class="cls-28" d="M197.92,244.51l0,13.15a7.81,7.81,0,0,0,1.09-.52,3.72,3.72,0,0,0,2.22-3.1l0-13.16A3.75,3.75,0,0,1,199,244a10,10,0,0,1-1.09.52Z"/></g></g></g><path class="cls-14" d="M188.41,237.82c-2.95,1.7-3,4.46,0,6.16A11.71,11.71,0,0,0,199,244c3-1.71,3-4.47,0-6.17A11.74,11.74,0,0,0,188.41,237.82Z"/><path class="cls-14" d="M188.41,237.82c-2.95,1.7-3,4.46,0,6.16A11.71,11.71,0,0,0,199,244c3-1.71,3-4.47,0-6.17A11.74,11.74,0,0,0,188.41,237.82Z"/><path class="cls-14" d="M188.41,237.82c-2.95,1.7-3,4.46,0,6.16A11.71,11.71,0,0,0,199,244c3-1.71,3-4.47,0-6.17A11.74,11.74,0,0,0,188.41,237.82Z"/><path class="cls-43" d="M189.54,238.51a11.78,11.78,0,0,1,10.16-.22,5.42,5.42,0,0,0-.65-.47,11.74,11.74,0,0,0-10.64,0c-2.95,1.7-3,4.46,0,6.16.15.09.32.15.47.23C186.62,242.5,186.83,240.06,189.54,238.51Z"/><path class="cls-14" d="M200.17,238.51a3.38,3.38,0,0,0-.47-.22c2.22,1.7,2,4.14-.69,5.7a11.84,11.84,0,0,1-10.17.22,6.94,6.94,0,0,0,.66.46,11.68,11.68,0,0,0,10.64,0C203.09,243,203.1,240.21,200.17,238.51Z"/><polygon class="cls-9" points="23.54 194.37 23.58 207.52 141.28 275.93 141.24 262.77 23.54 194.37"/><polygon class="cls-48" points="23.54 194.37 141.24 262.77 231.62 210.58 113.93 142.18 23.54 194.37"/><path class="cls-9" d="M238.84,226.23,168.24,267c-5.46,3.15-14.29,3.15-19.72,0l-7.28-4.23,90.38-52.19,7.28,4.23C244.33,218,244.3,223.08,238.84,226.23Zm-50.43,11.59c-2.95,1.7-3,4.46,0,6.16A11.71,11.71,0,0,0,199,244c3-1.71,3-4.47,0-6.17a11.74,11.74,0,0,0-10.64,0Z"/><path class="cls-14" d="M243,220.48c0,2.09-1.37,4.17-4.12,5.75L168.24,267c-.33.19-.68.36-1,.53l-.34.15-.76.32-.24.09c-.28.1-.56.2-.86.29l-.28.09-.57.15c-.28.08-.57.15-.85.21l-.59.12-.74.13-.61.09-.71.07-.64.06-.7,0h-1.41l-.6,0c-.32,0-.63,0-.95-.06l-.56,0-.28,0c-.33,0-.65-.08-1-.13l-.24,0-.56-.12-.77-.16-.55-.15c-.24-.07-.49-.13-.72-.21s-.67-.21-1-.34l-.12,0c-.31-.13-.61-.25-.89-.39l-.27-.12c-.31-.15-.63-.32-.93-.49l-7.28-4.23,0,13.16,7.28,4.23c.3.17.61.34.93.49l.27.12.87.38a.84.84,0,0,1,.14.06l.84.29.15,0c.24.08.49.15.73.21s.36.11.54.15l.78.16.44.1.12,0,.23,0c.32.06.64.1,1,.14l.29,0,.18,0,.38,0c.31,0,.63.05,1,.06l.22,0h1.77l.72,0,.31,0,.33,0,.7-.08.32,0,.29-.05.75-.14.35-.05.23-.06c.29-.06.58-.13.86-.21.12,0,.24,0,.36-.09a1.17,1.17,0,0,0,.2-.06l.3-.09.84-.29.24-.09.12,0c.22-.08.42-.18.63-.28l.35-.15c.36-.16.7-.35,1-.53l70.6-40.76c2.75-1.59,4.12-3.67,4.11-5.76Z"/><path class="cls-49" d="M21.39,193.48l2,1.17L141,263l7.27,4.23c5.43,3.15,14.25,3.15,19.71,0l70.55-40.73c5.46-3.15,5.48-8.26.06-11.41l-7.27-4.23L113.71,142.51l-2-1.17c-5.42-3.15-14.24-3.15-19.7,0L21.46,182.07C16,185.22,16,190.33,21.39,193.48Z"/><path class="cls-50" d="M21.39,184.27l2,1.16L141,253.78l7.27,4.22c5.43,3.16,14.25,3.16,19.71,0l70.55-40.72c5.46-3.16,5.48-8.26.06-11.42l-7.27-4.23L113.71,133.29l-2-1.16c-5.42-3.16-14.24-3.16-19.7,0L21.46,172.85C16,176,16,181.12,21.39,184.27Z"/><path class="cls-51" d="M21.39,175.05l2,1.17L141,244.56l7.27,4.23c5.43,3.15,14.25,3.15,19.71,0l70.55-40.73c5.46-3.15,5.48-8.26.06-11.41l-7.27-4.23L113.71,124.08l-2-1.17c-5.42-3.15-14.24-3.15-19.7,0L21.46,163.64C16,166.79,16,171.9,21.39,175.05Z"/><path class="cls-52" d="M21.39,165.84l2,1.17L141,235.35l7.27,4.23c5.43,3.15,14.25,3.15,19.71,0l70.55-40.73c5.46-3.15,5.48-8.26.06-11.42l-7.27-4.22L113.71,114.86l-2-1.16c-5.42-3.16-14.24-3.16-19.7,0L21.46,154.42C16,157.58,16,162.69,21.39,165.84Z"/><path class="cls-53" d="M21.39,156.62l2,1.17L141,226.13l7.27,4.23c5.43,3.16,14.25,3.16,19.71,0l70.55-40.73c5.46-3.15,5.48-8.26.06-11.41L231.32,174,113.71,105.65l-2-1.17c-5.42-3.15-14.24-3.15-19.7,0L21.46,145.21C16,148.36,16,153.47,21.39,156.62Z"/><path class="cls-54" d="M21.39,147.41l2,1.17L141,216.92l7.27,4.23c5.43,3.15,14.25,3.15,19.71,0l70.55-40.73c5.46-3.15,5.48-8.26.06-11.42l-7.27-4.22L113.71,96.43l-2-1.16c-5.42-3.15-14.24-3.15-19.7,0L21.46,136C16,139.15,16,144.26,21.39,147.41Z"/><path class="cls-55" d="M21.39,138.2l2,1.16L141,207.71l7.27,4.22c5.43,3.16,14.25,3.16,19.71,0l70.55-40.72c5.46-3.16,5.48-8.27.06-11.42l-7.27-4.23L113.71,87.22l-2-1.17c-5.42-3.15-14.24-3.15-19.7,0L21.46,126.78C16,129.93,16,135,21.39,138.2Z"/><g class="cls-3"><path d="M70.6,254.54c10.35,6,10.4,15.67.12,21.64s-27,6-37.36,0-10.4-15.66-.12-21.64S60.25,248.57,70.6,254.54Z"/></g><path class="cls-56" d="M114,142.17,112,141c-5.43-3.15-14.26-3.15-19.72,0l-70.6,40.76a10,10,0,0,0-2.24,1.76l218,30.39-5.75-3.34Z"/><g class="cls-3"><polygon points="136.99 254.5 41.36 198.93 122.06 152.1 219.02 208.35 136.99 254.5"/></g><g class="cls-2"><g class="cls-57"><g class="cls-2"><path class="cls-58" d="M125.41,54.22l-.31,111.62a9.05,9.05,0,0,0-1-.47l.32-111.62a6.83,6.83,0,0,1,1,.47Z"/><path class="cls-59" d="M124.43,53.75l-.32,111.62c-.26-.1-.54-.2-.83-.28l.32-111.62a8.09,8.09,0,0,1,.83.28Z"/><path class="cls-60" d="M123.6,53.47l-.32,111.62-.71-.17.31-111.63.72.18Z"/><path class="cls-61" d="M122.88,53.29l-.31,111.63a6.86,6.86,0,0,0-.68-.12l.32-111.62.67.11Z"/><path class="cls-62" d="M122.21,53.18l-.32,111.62-.66-.08.32-111.62.66.08Z"/><path class="cls-63" d="M121.55,53.1l-.32,111.62-.68,0,.32-111.62c.23,0,.45,0,.68,0Z"/><path class="cls-64" d="M120.87,53.07l-.32,111.62h-.7l.31-111.62Z"/><path class="cls-65" d="M120.16,53.07l-.31,111.62-.77.05.33-111.62.75,0Z"/><path class="cls-66" d="M119.41,53.12l-.33,111.62-.86.12.31-111.62c.29-.05.58-.09.88-.12Z"/><path class="cls-67" d="M118.53,53.24l-.31,111.62a10.73,10.73,0,0,0-1.3.32l.32-111.62a11,11,0,0,1,1.29-.32Z"/><path class="cls-68" d="M117.24,53.56l-.32,111.62a8.09,8.09,0,0,0-1.49.66l.32-111.62a8.09,8.09,0,0,1,1.49-.66Z"/></g></g></g><g class="cls-2"><g class="cls-69"><g class="cls-2"><path class="cls-68" d="M115.75,54.22l-.32,111.62-.09.06.31-111.63.1-.05Z"/><path class="cls-67" d="M115.65,54.27l-.31,111.63a5.44,5.44,0,0,0-.87.64l.32-111.62a5.87,5.87,0,0,1,.86-.65Z"/><path class="cls-66" d="M114.79,54.92l-.32,111.62a3,3,0,0,0-.42.46l.31-111.63a6,6,0,0,1,.43-.45Z"/><path class="cls-65" d="M114.36,55.37,114.05,167a4.85,4.85,0,0,0-.28.4l.31-111.61c.08-.14.18-.28.28-.42Z"/><path class="cls-64" d="M114.08,55.79l-.31,111.61a2.26,2.26,0,0,0-.18.39l.32-111.62a2.59,2.59,0,0,1,.17-.38Z"/><path class="cls-63" d="M113.91,56.17l-.32,111.62a1.9,1.9,0,0,0-.11.39l.31-111.62a2.91,2.91,0,0,1,.12-.39Z"/><path class="cls-62" d="M113.79,56.56l-.31,111.62a1.74,1.74,0,0,0,0,.39L113.75,57c0-.13,0-.26,0-.39Z"/><path class="cls-61" d="M113.75,57l-.32,111.62v.06L113.75,57V57Z"/></g></g></g><g class="cls-2"><g class="cls-70"><g class="cls-2"><path class="cls-28" d="M115.76,59.83l-.31,111.62a3.42,3.42,0,0,1-2-2.82L113.75,57a3.41,3.41,0,0,0,2,2.82Z"/></g></g></g><polygon class="cls-71" points="195.64 94.77 195.32 206.39 125.1 165.84 125.41 54.22 195.64 94.77"/><polygon class="cls-4" points="200.58 91.9 200.27 203.52 195.32 206.39 195.64 94.77 200.58 91.9"/><polygon class="cls-42" points="195.64 94.77 195.32 206.39 193.34 205.78 185.68 210.4 185.99 100.38 195.64 94.77"/><polygon class="cls-30" points="185.99 100.38 185.68 212 115.45 171.45 115.76 59.83 185.99 100.38"/><path class="cls-6" d="M195.64,94.77,186,100.38,115.76,59.83c-2.67-1.54-2.69-4.06,0-5.61a10.68,10.68,0,0,1,9.66,0Z"/><path class="cls-72" d="M115.76,59.83,186,100.38l7.67-4.46L123.22,55.38a10.79,10.79,0,0,0-8.24-.61C113.12,56.31,113.38,58.45,115.76,59.83Z"/><polygon class="cls-4" points="185.99 100.38 185.68 212 180.73 214.87 181.04 103.25 185.99 100.38"/><path class="cls-5" d="M108.51,61.36c-2.73-1.57-4.09-3.64-4.09-5.7l-.31,111.61c0,2.07,1.36,4.14,4.08,5.71l72.54,41.89L181,103.25Z"/><path class="cls-5" d="M200.58,91.9l-4.94,2.87L125.41,54.22a10.68,10.68,0,0,0-9.66,0c-2.68,1.55-2.66,4.07,0,5.61L186,100.38l-5,2.87L108.51,61.36c-5.42-3.12-5.45-8.21-.06-11.35s14.17-3.13,19.59,0Z"/><path class="cls-73" d="M115.75,54.22a10.68,10.68,0,0,1,9.66,0l70.23,40.55,3.86-2.24L128,51.27c-5.42-3.12-14.2-3.12-19.59,0-2.41,1.41-3.68,3.2-3.92,5,.25,1.85,1.54,3.66,4,5.06L181,103.25l5-2.87L116.25,60.12a4.55,4.55,0,0,1-2.39-2.48C113.4,56.47,114.14,55.15,115.75,54.22Z"/><polygon class="cls-6" points="195.64 94.77 195.32 206.39 193.34 205.78 193.66 95.92 195.64 94.77"/><polygon class="cls-74" points="190.06 124.5 190.36 181.83 190.96 160.34 191.49 98.8 190.06 124.5"/><polygon class="cls-75" points="141.97 72.07 188.69 98.8 187.05 99.76 141.97 72.07"/><polygon class="cls-74" points="188.69 98.8 187.97 137.56 187.05 99.76 188.69 98.8"/><polygon class="cls-74" points="141.97 72.07 188.69 98.8 187.87 99.28 141.97 72.07"/><polygon class="cls-76" points="187.87 99.28 188.25 122.75 188.69 98.8 187.87 99.28"/><polygon class="cls-76" points="187.87 150.58 187.05 209.56 188.69 208.58 187.87 150.58"/><path class="cls-77" d="M104.42,55.66l-.31,111.61a5.09,5.09,0,0,0,.69,2.4L181,103.25,108.51,61.36C105.78,59.79,104.42,57.72,104.42,55.66Z"/><g class="cls-2"><g class="cls-78"><g class="cls-2"><path class="cls-58" d="M99.91,70.87l-.32,111.62a6.79,6.79,0,0,0-1-.47L98.93,70.4a6.79,6.79,0,0,1,1,.47Z"/><path class="cls-59" d="M98.93,70.4,98.61,182a8.09,8.09,0,0,0-.83-.28L98.1,70.12c.28.08.55.17.83.28Z"/><path class="cls-60" d="M98.1,70.12l-.32,111.62c-.23-.07-.48-.13-.72-.18l.32-111.62q.36.07.72.18Z"/><path class="cls-61" d="M97.38,69.94l-.32,111.62-.67-.11.32-111.63.67.12Z"/><path class="cls-62" d="M96.71,69.82l-.32,111.63c-.23,0-.44-.06-.67-.08L96,69.75l.67.07Z"/><path class="cls-63" d="M96,69.75l-.32,111.62-.67,0,.32-111.62.67,0Z"/><path class="cls-64" d="M95.37,69.71l-.32,111.62h-.71l.32-111.62Z"/><path class="cls-65" d="M94.66,69.72l-.32,111.62c-.25,0-.5,0-.76,0L93.9,69.77a6.47,6.47,0,0,1,.76,0Z"/><path class="cls-66" d="M93.9,69.77l-.32,111.62-.87.12L93,69.89c.28,0,.58-.09.87-.12Z"/><path class="cls-67" d="M93,69.89l-.32,111.62a10.57,10.57,0,0,0-1.29.32l.31-111.62a10.73,10.73,0,0,1,1.3-.32Z"/><path class="cls-68" d="M91.73,70.21l-.31,111.62a7.57,7.57,0,0,0-1.5.66l.31-111.62a7.83,7.83,0,0,1,1.5-.66Z"/></g></g></g><g class="cls-2"><g class="cls-79"><g class="cls-2"><path class="cls-68" d="M90.23,70.87l-.31,111.62-.08,0,.31-111.62.08,0Z"/><path class="cls-67" d="M90.15,70.92l-.31,111.62a4.69,4.69,0,0,0-.87.65l.31-111.63a5.44,5.44,0,0,1,.87-.64Z"/><path class="cls-66" d="M89.28,71.56,89,183.19a3,3,0,0,0-.43.45L88.85,72a6,6,0,0,1,.43-.46Z"/><path class="cls-65" d="M88.85,72l-.31,111.62a3.32,3.32,0,0,0-.28.41l.32-111.62a3.62,3.62,0,0,1,.27-.41Z"/><path class="cls-64" d="M88.58,72.43l-.32,111.62a3.39,3.39,0,0,0-.18.39L88.4,72.82a2.26,2.26,0,0,1,.18-.39Z"/><path class="cls-63" d="M88.4,72.82l-.32,111.62c0,.13-.08.26-.11.39L88.29,73.2a3.18,3.18,0,0,1,.11-.38Z"/><path class="cls-62" d="M88.29,73.2,88,184.83a2.45,2.45,0,0,0,0,.39L88.24,73.6a1.9,1.9,0,0,1,.05-.4Z"/><path class="cls-61" d="M88.24,73.6l-.31,111.62v.06l.31-111.62V73.6Z"/></g></g></g><g class="cls-2"><g class="cls-80"><g class="cls-2"><path class="cls-28" d="M90.26,76.48,89.94,188.1a3.39,3.39,0,0,1-2-2.82l.31-111.62a3.43,3.43,0,0,0,2,2.82Z"/></g></g></g><polygon class="cls-71" points="170.14 111.41 169.82 223.03 99.59 182.49 99.91 70.87 170.14 111.41"/><polygon class="cls-81" points="175.07 108.54 174.76 220.16 169.82 223.03 170.14 111.41 175.07 108.54"/><polygon class="cls-42" points="170.14 111.41 169.82 223.03 167.83 222.43 160.17 227.05 160.48 117.02 170.14 111.41"/><polygon class="cls-30" points="160.48 117.02 160.16 228.65 89.94 188.1 90.26 76.48 160.48 117.02"/><path class="cls-82" d="M170.14,111.41,160.48,117,90.26,76.48c-2.68-1.55-2.69-4.06,0-5.61a10.66,10.66,0,0,1,9.68,0Z"/><path class="cls-72" d="M90.26,76.48,160.48,117l7.67-4.45L97.71,72a10.79,10.79,0,0,0-8.24-.62C87.61,73,87.87,75.1,90.26,76.48Z"/><polygon class="cls-81" points="160.48 117.02 160.16 228.65 155.23 231.51 155.54 119.89 160.48 117.02"/><path class="cls-83" d="M83,78c-2.72-1.57-4.09-3.64-4.08-5.71L78.6,183.92c0,2.07,1.36,4.14,4.08,5.71l72.55,41.88.31-111.62Z"/><path class="cls-84" d="M175.08,108.54l-4.94,2.87L99.91,70.87a10.66,10.66,0,0,0-9.68,0c-2.66,1.55-2.65,4.06,0,5.61L160.48,117l-4.94,2.87L83,78c-5.42-3.13-5.45-8.21,0-11.35s14.16-3.13,19.58,0Z"/><path class="cls-83" d="M90.23,70.87a10.66,10.66,0,0,1,9.68,0l70.23,40.54,3.84-2.24L102.53,67.92c-5.42-3.13-14.2-3.13-19.58,0-2.41,1.4-3.68,3.2-3.93,5,.26,1.84,1.54,3.65,4,5.06l72.54,41.88,4.94-2.87L90.75,76.77a4.69,4.69,0,0,1-2.41-2.48C87.9,73.12,88.63,71.8,90.23,70.87Z"/><polygon class="cls-82" points="170.14 111.41 169.82 223.03 167.83 222.43 168.15 112.57 170.14 111.41"/><polygon class="cls-75" points="93.63 72.78 165.15 114.31 166.81 113.33 93.63 72.78"/><polygon class="cls-74" points="165.15 114.31 165.46 176.98 165.46 176.98 166.81 113.33 165.15 114.31"/><polygon class="cls-76" points="162.37 167.22 161.55 226.21 163.18 225.23 162.37 167.22"/><polygon class="cls-81" points="139.16 127.75 138.96 141.32 93.97 114.34 93.77 100.99 139.16 127.75"/><polygon class="cls-81" points="139.16 149.14 138.96 162.71 93.97 135.73 93.77 122.38 139.16 149.14"/><polygon class="cls-81" points="139.16 170.52 138.96 184.09 93.97 157.12 93.77 143.76 139.16 170.52"/><polygon class="cls-81" points="136.49 122.41 136.28 135.97 91.29 109 91.1 95.64 136.49 122.41"/><polygon class="cls-81" points="136.49 143.79 136.28 157.36 91.29 130.39 91.1 117.03 136.49 143.79"/><polygon class="cls-81" points="136.49 165.18 136.28 178.75 91.29 151.77 91.1 138.42 136.49 165.18"/><path class="cls-77" d="M78.92,72.3,78.6,183.92a5.08,5.08,0,0,0,.69,2.39l76.25-66.42L83,78C80.28,76.44,78.91,74.37,78.92,72.3Z"/><g class="cls-2"><g class="cls-85"><g class="cls-2"><path class="cls-58" d="M71.52,84,71.2,195.57a8.1,8.1,0,0,0-1-.47l.32-111.62a6.84,6.84,0,0,1,1,.48Z"/><path class="cls-59" d="M70.54,83.48,70.22,195.1c-.26-.1-.54-.19-.83-.28L69.71,83.2c.28.08.56.18.83.28Z"/><path class="cls-60" d="M69.71,83.2l-.32,111.62-.71-.17L69,83l.71.17Z"/><path class="cls-61" d="M69,83l-.32,111.62c-.22-.05-.45-.09-.68-.12l.32-111.62L69,83Z"/><path class="cls-62" d="M68.32,82.91,68,194.53l-.67-.08.32-111.61c.22,0,.45,0,.67.07Z"/><path class="cls-63" d="M67.65,82.84l-.32,111.61-.67,0L67,82.8c.23,0,.45,0,.67,0Z"/><path class="cls-64" d="M67,82.8l-.32,111.62H66L66.27,82.8Z"/><path class="cls-65" d="M66.27,82.8,66,194.42l-.77.05.32-111.62.76,0Z"/><path class="cls-66" d="M65.51,82.85l-.32,111.62c-.29,0-.58.07-.86.12L64.64,83q.44-.07.87-.12Z"/><path class="cls-67" d="M64.64,83l-.31,111.62a10.75,10.75,0,0,0-1.3.33L63.34,83.3a9.52,9.52,0,0,1,1.3-.33Z"/><path class="cls-68" d="M63.34,83.3,63,194.92a7.81,7.81,0,0,0-1.5.65L61.85,84a7.17,7.17,0,0,1,1.49-.66Z"/></g></g></g><g class="cls-2"><g class="cls-86"><g class="cls-2"><path class="cls-68" d="M61.85,84l-.32,111.61-.08.06L61.76,84l.09,0Z"/><path class="cls-67" d="M61.76,84l-.31,111.63a5,5,0,0,0-.87.64l.31-111.62a6.16,6.16,0,0,1,.87-.65Z"/><path class="cls-66" d="M60.89,84.65l-.31,111.62a3,3,0,0,0-.42.46l.31-111.62a3.57,3.57,0,0,1,.42-.46Z"/><path class="cls-65" d="M60.47,85.11l-.31,111.62c-.11.13-.2.27-.29.4l.32-111.61a2.71,2.71,0,0,1,.28-.41Z"/><path class="cls-64" d="M60.19,85.52l-.32,111.61-.18.4L60,85.91a2.32,2.32,0,0,1,.18-.39Z"/><path class="cls-63" d="M60,85.91l-.32,111.62a2.66,2.66,0,0,0-.1.38L59.9,86.29a2.38,2.38,0,0,1,.11-.38Z"/><path class="cls-62" d="M59.9,86.29l-.31,111.62a1.81,1.81,0,0,0-.05.39l.31-111.62a2.6,2.6,0,0,1,0-.39Z"/><path class="cls-61" d="M59.85,86.68,59.54,198.3v.07l.31-111.62v-.07Z"/></g></g></g><g class="cls-2"><g class="cls-87"><g class="cls-2"><path class="cls-28" d="M61.87,89.57l-.32,111.62a3.41,3.41,0,0,1-2-2.82l.31-111.62a3.46,3.46,0,0,0,2,2.82Z"/></g></g></g><polygon class="cls-71" points="141.75 124.5 141.43 236.12 71.2 195.57 71.52 83.95 141.75 124.5"/><polygon class="cls-88" points="146.69 121.63 146.37 233.25 141.43 236.12 141.75 124.5 146.69 121.63"/><polygon class="cls-42" points="141.75 124.5 141.43 236.12 139.44 235.51 131.78 240.13 132.09 130.11 141.75 124.5"/><polygon class="cls-30" points="132.09 130.11 131.78 241.73 61.55 201.19 61.87 89.56 132.09 130.11"/><path class="cls-89" d="M141.75,124.5l-9.66,5.61L61.87,89.57C59.2,88,59.18,85.5,61.85,84a10.64,10.64,0,0,1,9.67,0Z"/><path class="cls-72" d="M61.87,89.57l70.22,40.54,7.67-4.46L69.33,85.12a10.77,10.77,0,0,0-8.25-.62C59.23,86.05,59.49,88.18,61.87,89.57Z"/><polygon class="cls-88" points="132.09 130.11 131.78 241.73 126.84 244.6 127.15 132.98 132.09 130.11"/><path class="cls-89" d="M54.62,91.1c-2.73-1.58-4.1-3.65-4.09-5.71L50.21,197c0,2.07,1.36,4.13,4.09,5.71l72.54,41.88L127.15,133Z"/><path class="cls-90" d="M146.69,121.63l-4.94,2.87L71.52,84a10.64,10.64,0,0,0-9.67,0c-2.67,1.54-2.65,4.06,0,5.61l70.22,40.54L127.15,133,54.62,91.1c-5.42-3.13-5.45-8.22-.06-11.35s14.16-3.14,19.58,0Z"/><path class="cls-91" d="M61.85,84a10.64,10.64,0,0,1,9.67,0l70.23,40.54,3.85-2.24L74.14,81C68.72,77.88,60,77.88,54.56,81c-2.41,1.4-3.68,3.19-3.93,5,.26,1.85,1.54,3.66,4,5.07L127.15,133l4.94-2.87L62.36,89.85A4.64,4.64,0,0,1,60,87.38C59.51,86.2,60.24,84.89,61.85,84Z"/><polygon class="cls-89" points="141.75 124.5 141.43 236.12 139.44 235.51 139.76 125.65 141.75 124.5"/><polygon class="cls-75" points="65.24 85.87 136.76 127.39 138.42 126.41 65.24 85.87"/><polygon class="cls-74" points="136.76 127.39 137.07 190.07 137.07 190.07 138.42 126.41 136.76 127.39"/><polygon class="cls-75" points="88.08 101.8 134.8 128.54 133.16 129.49 88.08 101.8"/><polygon class="cls-74" points="134.8 128.54 134.08 167.29 133.16 129.49 134.8 128.54"/><polygon class="cls-74" points="88.08 101.8 134.8 128.54 133.98 129.01 88.08 101.8"/><polygon class="cls-74" points="138.42 126.41 109.5 110.39 137.59 126.91 138.42 126.41"/><polygon class="cls-76" points="137.59 126.91 137.85 153.48 138.42 126.41 137.59 126.91"/><polygon class="cls-76" points="133.98 129.01 134.35 152.48 134.8 128.54 133.98 129.01"/><polygon class="cls-76" points="133.98 180.31 133.16 239.3 134.8 238.31 133.98 180.31"/><polygon class="cls-92" points="110.77 140.84 110.57 154.41 65.58 127.43 65.38 114.08 110.77 140.84"/><polygon class="cls-92" points="110.77 162.22 110.57 175.79 65.58 148.82 65.38 135.46 110.77 162.22"/><polygon class="cls-92" points="110.77 183.61 110.57 197.18 65.58 170.2 65.38 156.85 110.77 183.61"/><polygon class="cls-92" points="108.1 135.49 107.89 149.06 62.91 122.09 62.71 108.73 108.1 135.49"/><polygon class="cls-92" points="108.1 156.88 107.89 170.45 62.91 143.47 62.71 130.12 108.1 156.88"/><polygon class="cls-92" points="108.1 178.26 107.89 191.83 62.91 164.85 62.71 151.5 108.1 178.26"/><path class="cls-5" d="M107,110.14s-1.26-9,4.4-12.69,6.15-4.9,6.71-7.24l1.34,4.24L124.94,92s-1.89,7.13-6.45,9.8-5.13,10.47-4.13,12.59Z"/><path class="cls-93" d="M118.49,101.8c4.56-2.67,6.45-9.8,6.45-9.8l-5.29,2.38a20.07,20.07,0,0,1-5.23,6.81c-3.48,2.64-4.13,7.44-4,10.93l3.9,2.27C113.36,112.27,113.92,104.47,118.49,101.8Z"/><path class="cls-77" d="M50.53,85.39,50.21,197a5.08,5.08,0,0,0,.69,2.39L127.15,133,54.62,91.1C51.89,89.52,50.52,87.45,50.53,85.39Z"/><path class="cls-14" d="M42.08,211.14v0a.09.09,0,0,1,0-.05.07.07,0,0,0,0,0v-.05a.13.13,0,0,1,0-.06.43.43,0,0,0,0,0s0,0,0-.06,0,0,0-.06a.06.06,0,0,1,0,0h0a.14.14,0,0,0,0-.06s0,0,0,0l0-.05,0-.06,0-.05,0,0,0-.05,0-.07a.25.25,0,0,0,0-.07h0v0a1.25,1.25,0,0,0-.08-.12.86.86,0,0,0-.07-.1l0-.06,0,0,0-.05-.05-.05,0,0,0,0,0,0-.05,0,0,0-.05,0,0,0,0,0,0,0h0l-11.25-6.5,0,0,0,0-.05,0,0,0,0,0h-.39l-.07,0-.09,0-1.12.64a.55.55,0,0,1,.34-.06h0a1,1,0,0,1,.42.14L39.9,210a1.61,1.61,0,0,1,.41.33h0a3.72,3.72,0,0,1,.33.45h0a2.17,2.17,0,0,1,.23.52h0a1.93,1.93,0,0,1,.08.52,1,1,0,0,1-.08.42h0a.54.54,0,0,1-.23.26l1.12-.65a.52.52,0,0,0,.18-.18.25.25,0,0,0,0-.07l0-.06a.08.08,0,0,1,0-.05s0,0,0-.06,0,0,0,0a.43.43,0,0,1,0-.05v0a.11.11,0,0,0,0-.05v-.05h0Z"/><path class="cls-94" d="M39.9,210A2.33,2.33,0,0,1,41,211.84c0,.67-.48.95-1.06.61L28.64,206a2.33,2.33,0,0,1-1.06-1.84c0-.67.48-.94,1.07-.6Z"/><path class="cls-14" d="M58.15,220.2a.09.09,0,0,1,0,0,.13.13,0,0,0,0-.06V220a.11.11,0,0,0,0,0,.09.09,0,0,0,0-.05v-.06s0,0,0,0,0,0,0-.06l0,0h0l0-.06a.08.08,0,0,0,0,0s0,0,0-.06a.17.17,0,0,0,0-.05l0-.05a.08.08,0,0,1,0,0l0-.06,0-.06a.43.43,0,0,0,0-.07h0l-.09-.13-.06-.1,0-.06,0-.05,0,0,0-.05,0,0,0,0-.05,0,0,0,0,0-.05,0,0,0,0,0,0,0h0l-11.25-6.5,0,0,0,0,0,0,0,0-.05,0h0l0,0h-.3l-.08,0-.09,0-1.11.65a.61.61,0,0,1,.34-.07h0a1.13,1.13,0,0,1,.42.15L56,219.06a2.12,2.12,0,0,1,.41.33h0a3,3,0,0,1,.34.45h0a2.53,2.53,0,0,1,.22.51h0a1.57,1.57,0,0,1,.09.51.94.94,0,0,1-.09.43h0a.57.57,0,0,1-.22.26l1.11-.65a.47.47,0,0,0,.19-.18l0-.07,0-.06,0-.06,0-.05a.07.07,0,0,1,0,0v-.05s0,0,0-.06v0a.09.09,0,0,0,0-.05h0Z"/><path class="cls-94" d="M56,219.06A2.33,2.33,0,0,1,57,220.89c0,.68-.48,1-1.07.61L44.71,215a2.33,2.33,0,0,1-1.06-1.84c0-.67.47-.94,1.07-.6Z"/><path class="cls-95" d="M196.92,256a3.56,3.56,0,0,0-1.6,2.77c0,1,.73,1.44,1.61.92l17-9.83a3.54,3.54,0,0,0,1.6-2.77c0-1-.72-1.43-1.61-.92Z"/><path class="cls-95" d="M196.92,256a3.56,3.56,0,0,0-1.6,2.77c0,1,.73,1.44,1.61.92l17-9.83a3.54,3.54,0,0,0,1.6-2.77c0-1-.72-1.43-1.61-.92Z"/><path class="cls-95" d="M196.92,256a3.56,3.56,0,0,0-1.6,2.77c0,1,.73,1.44,1.61.92l17-9.83a3.54,3.54,0,0,0,1.6-2.77c0-1-.72-1.43-1.61-.92Z"/><path class="cls-96" d="M196.92,256a3.56,3.56,0,0,0-1.6,2.77,1.44,1.44,0,0,0,.05.24h0l17-9.83A3.53,3.53,0,0,0,214,246.4a1.55,1.55,0,0,0,0-.23h0Z"/><g class="cls-97"><path class="cls-98" d="M65.43,84.5A12.24,12.24,0,1,1,53.2,72.26,12.22,12.22,0,0,1,65.43,84.5Z"/><path class="cls-99" d="M63.5,84.6A10.3,10.3,0,1,1,53.2,74.3,10.3,10.3,0,0,1,63.5,84.6Z"/><path class="cls-100" d="M61.56,84.71a8.37,8.37,0,1,1-8.36-8.37A8.36,8.36,0,0,1,61.56,84.71Z"/><path class="cls-101" d="M59.63,84.81a6.43,6.43,0,1,1-6.43-6.43A6.43,6.43,0,0,1,59.63,84.81Z"/><path class="cls-102" d="M57.69,84.92a4.5,4.5,0,1,1-4.49-4.5A4.49,4.49,0,0,1,57.69,84.92Z"/><path class="cls-103" d="M55.76,85a2.56,2.56,0,1,1-2.56-2.56A2.56,2.56,0,0,1,55.76,85Z"/><path class="cls-104" d="M53.82,85.12a.63.63,0,1,1-.62-.62A.63.63,0,0,1,53.82,85.12Z"/></g><path class="cls-105" d="M65.19,269.7s1.59,3.28-.79,4.3-2.37-.56-6.79,3.06-8.32,2-9,1.36c-1.2-1.06-.52-4.16,9.3-9.14Z"/><path class="cls-106" d="M64.4,274c-2.38,1-2.38-.56-6.8,3.06s-8.4,2.1-9,1.36c-.08-.08-.33-.26-.34-.47,4.12,1.46,6.55-.57,8.36-2a13.66,13.66,0,0,1,6.27-2.61c2.83-.61,1.79-2.8,1.79-2.8a1.37,1.37,0,0,1,.78-.27C65.76,271.31,66.14,273.26,64.4,274Z"/><path class="cls-105" d="M51.34,259.9s1.58,3.29-.79,4.31-2.39-.57-6.8,3.05-8.4,2.1-9,1.37c-.48-.54-.52-4.17,9.31-9.15Z"/><path class="cls-106" d="M50.54,264.21c-2.38,1-2.38-.57-6.79,3.05s-8.41,2.1-9,1.37a.7.7,0,0,1-.15-.45c4.13,1.47,6.36-.59,8.17-2A13.67,13.67,0,0,1,49,263.58c2.84-.61,1.79-2.8,1.79-2.8a1.32,1.32,0,0,1,.78-.26C51.9,261.51,52.28,263.46,50.54,264.21Z"/><path class="cls-107" d="M72.21,216.73s-4.68-.7-7.27-3.44c0,0-17.88,12.41-19.37,16.41-1.41,3.81-3.46,22.41-3.33,30.41,0,2.55,9.62,4.42,10.19.76,1-6.6,1.83-25.11,1.83-25.11S75.56,228.15,72.21,216.73Z"/><path class="cls-108" d="M87.91,215.51s2.57,9-4,14-18.11,12-18.11,12a145.32,145.32,0,0,1,.41,16.53c-.21,9.47,0,9.22-.41,12.54-.28,2.4-9.58,3.19-10-1-.92-8.61-.7-30.49,1.13-34.45s14.52-12.76,14.52-12.76l-2-6.18S81.36,219.17,87.91,215.51Z"/><path class="cls-108" d="M87.91,215.51s2.57,9-4,14-18.11,12-18.11,12a145.32,145.32,0,0,1,.41,16.53c-.21,9.47,0,9.22-.41,12.54-.28,2.4-9.58,3.19-10-1-.92-8.61-.7-30.49,1.13-34.45s14.52-12.76,14.52-12.76l-2-6.18S81.36,219.17,87.91,215.51Z"/><path class="cls-109" d="M46.59,197.22a6.74,6.74,0,0,0-3.15-1,6.23,6.23,0,0,0-4,.77c-1.27.48-2.18,1-1.92,1.61s3.13,1.69,4.87,1.27c1.07-.27,3.77,1.22,4.39,1.22S47.25,197.58,46.59,197.22Z"/><path class="cls-110" d="M46.75,201.12c-.62,0-3.32-1.49-4.39-1.22a7,7,0,0,1-4.12-.68l0-.09c.26-.35,1.19-.09,1.77-.24s2.4,0,3.57-.24,3.31,1.1,3.31,1.1l.21.14C47.13,200.57,47,201.12,46.75,201.12Z"/><path class="cls-111" d="M73.29,178.48s-3.5-4.51-7,.49c-2.26,3.25-6.06,16.17-7.5,17.27-.71.54-12.7.1-12.7.1s1.79,1.77-.55,5.19c0,0,15.61,5,18.18,1.76C68.14,197.79,75.5,183.92,73.29,178.48Z"/><path class="cls-112" d="M66.89,204.79c0-.42.09-.94.11-1.56v-.06c.06-1.88.24-3.75-1.86-8.33a15.91,15.91,0,0,1-.55-10.49,13.08,13.08,0,0,1,4.08-8.75c1.91-1.43,18.68,5.55,19.15,5.89,6.19,4.44-2.23,13,0,27.95,1.17,7.86.64,8.31.64,8.31-11.57,5.68-24.16-4.12-24.16-4.12a10.27,10.27,0,0,0,.67-1.18A51.39,51.39,0,0,0,66.89,204.79Z"/><path class="cls-112" d="M66.89,204.79c0-.42.09-.94.11-1.56v-.06c.06-1.88.24-3.75-1.86-8.33a15.91,15.91,0,0,1-.55-10.49,13.08,13.08,0,0,1,4.08-8.75c1.91-1.43,18.68,5.55,19.15,5.89,6.19,4.44-2.23,13,0,27.95,1.17,7.86.64,8.31.64,8.31-11.57,5.68-24.16-4.12-24.16-4.12a10.27,10.27,0,0,0,.67-1.18A51.39,51.39,0,0,0,66.89,204.79Z"/><path class="cls-113" d="M72.35,173.71s.9,4.08,0,6.24,2.38,2.84,3.93,2.3,4-1.61,3.68-3-1.71-5.91-.82-7.53S72.35,173.71,72.35,173.71Z"/><path class="cls-109" d="M80.26,161.13s4.69,4.64,3.42,9.54c-.7,2.7-3.81,4.47-5.58,5.85s-6.22,4.53-8.06,1.3-4-12.54,0-16.69S80.26,161.13,80.26,161.13Z"/><path class="cls-114" d="M70,163.14s.55,3.23,6.69,4.17c1.75.27,1.43,5.58,2.8,4.24.52-.51,1.88-1.52,2-.75.77,3.66-4.51,4.76-3.66,7.17,1.33,3.74,11.9,8.87,8.23-12.77-.87-5.09-4-8.71-11.33-8.11-5.76.46-8.2,5.46-6.14,6.13C69,163.33,68.81,163,70,163.14Z"/><path class="cls-109" d="M75.31,212.55a6.88,6.88,0,0,0-3.31.82c-2.08,1-2.29,1.74-3.15,2.86s-1.4,2.06-.84,2.48,3.69-.17,5-1.49c.82-.82,4-.94,4.55-1.28S76.09,212.51,75.31,212.55Z"/><path class="cls-110" d="M77.55,215.94c-.54.34-3.73.46-4.55,1.28a7.19,7.19,0,0,1-4,1.61s0-.06,0-.09c0-.47,1-.73,1.44-1.19s2.11-1.32,3-2.13,3.53-.8,3.53-.8h.26C77.59,215.25,77.76,215.81,77.55,215.94Z"/><path class="cls-115" d="M87.49,181.34c-1.14-.63-3.58-1.18-4.11,2.91s3.77,19.14,3.08,20.89c-.34.88-12,6.87-12,6.87s2.54.61,2.3,4.93c0,0,16.48-4,17-8.22C94.71,201.43,92.84,184.29,87.49,181.34Z"/><path class="cls-107" d="M65.82,270.61c.38-3.32.2-3.07.41-12.54a145.32,145.32,0,0,0-.41-16.53s11.57-7,18.11-12a11.69,11.69,0,0,0,4.44-8.85c-2.39,5.9-16.94,16-21.54,17.44-5.87,1.83-2.76,9-2.88,10.6-.09,1.28.35,17.11.54,23.22C65.24,271.59,65.76,271.14,65.82,270.61Z"/><path class="cls-116" d="M54.74,163.69l-40.89-24.1c-1-.58-1.78-.12-1.8,1l0,3.94,44.44,26.18,0-3.94A3.88,3.88,0,0,0,54.74,163.69Z"/><path class="cls-117" d="M56.49,166.78l0,3.94L12,144.54l-.35,29.91a3.92,3.92,0,0,0,1.75,3.1L54.3,201.64c1,.58,1.78.13,1.8-1Z"/><polygon class="cls-118" points="45.19 168.37 45.18 171.03 20.23 156.63 20.24 153.97 45.19 168.37"/><polygon class="cls-118" points="45.19 173.95 45.18 176.61 20.23 162.21 20.24 159.55 45.19 173.95"/><polygon class="cls-118" points="45.19 181.39 45.18 184.05 20.23 169.65 20.24 166.99 45.19 181.39"/><polygon class="cls-118" points="45.19 186.97 45.18 189.63 20.23 175.23 20.24 172.56 45.19 186.97"/><g class="cls-97"><path class="cls-119" d="M32.71,142.82a16.36,16.36,0,1,1-16.35-16.36A16.35,16.35,0,0,1,32.71,142.82Z"/><path class="cls-120" d="M30.13,143a13.77,13.77,0,1,1-13.77-13.77A13.77,13.77,0,0,1,30.13,143Z"/><path class="cls-121" d="M27.54,143.1a11.19,11.19,0,1,1-11.18-11.19A11.19,11.19,0,0,1,27.54,143.1Z"/><path class="cls-122" d="M25,143.24a8.6,8.6,0,1,1-8.59-8.6A8.6,8.6,0,0,1,25,143.24Z"/><path class="cls-123" d="M22.36,143.37a6,6,0,1,1-6-6A6,6,0,0,1,22.36,143.37Z"/><path class="cls-124" d="M19.78,143.51a3.43,3.43,0,1,1-3.42-3.42A3.42,3.42,0,0,1,19.78,143.51Z"/><path class="cls-125" d="M17.19,143.65a.84.84,0,1,1-.84-.83A.83.83,0,0,1,17.19,143.65Z"/></g><path class="cls-126" d="M73.22,251.42c11.93,6.89,12,18.07.14,25s-31.15,6.89-43.09,0-12-18.07-.14-25S61.28,244.53,73.22,251.42Z"/><g class="cls-127"><path class="cls-128" d="M75.43,238.46c13.17,7.6,13.24,19.92.16,27.53s-34.37,7.6-47.53,0-13.24-19.93-.16-27.53S62.27,230.86,75.43,238.46Z"/></g><g class="cls-129"><path class="cls-130" d="M77.64,225.49c14.4,8.31,14.48,21.79.17,30.1s-37.57,8.31-52,0-14.47-21.79-.16-30.1S63.25,217.18,77.64,225.49Z"/></g><g class="cls-131"><path class="cls-132" d="M79.85,212.52c15.63,9,15.71,23.66.19,32.68s-40.78,9-56.41,0-15.71-23.65-.18-32.68S64.23,203.51,79.85,212.52Z"/></g><g class="cls-133"><path class="cls-134" d="M82.07,199.56c16.85,9.73,16.94,25.51.2,35.25s-44,9.73-60.85,0-16.94-25.52-.2-35.25S65.21,189.83,82.07,199.56Z"/></g><g class="cls-135"><path class="cls-136" d="M84.28,186.59c18.09,10.44,18.18,27.38.21,37.82s-47.2,10.44-65.28,0S1,197,19,186.59,66.2,176.15,84.28,186.59Z"/></g><g class="cls-137"><path class="cls-138" d="M86.49,173.63c19.32,11.15,19.42,29.23.23,40.39S36.31,225.17,17,214s-19.41-29.24-.22-40.39S67.18,162.48,86.49,173.63Z"/></g><path class="cls-139" d="M264.14,268c-.18,0-9.62-.29-7.51,3.25a5.25,5.25,0,0,0,4.66,2.73c1.42,0,4-.78,4.64-.37s3.84,2.62,5.67.4a3.57,3.57,0,0,0,.37-2.59C271.73,270.59,265.18,267.79,264.14,268Z"/><path class="cls-140" d="M256.63,271.25a5.25,5.25,0,0,0,4.66,2.73c1.42,0,4-.78,4.64-.37s3.84,2.62,5.67.4a2.7,2.7,0,0,0,.42-1.27c-1.27,1.89-4.4,1.38-5.28.74a4.89,4.89,0,0,0-3.65-.8,6.88,6.88,0,0,1-5.26-1.36,2.21,2.21,0,0,1-.62-2.28A1.42,1.42,0,0,0,256.63,271.25Z"/><path class="cls-107" d="M268.76,192.23s8,11.79,2.2,28.74c-1.25,3.69-3.75,11.55-2.92,15.42,1,4.63,2.45,3.32,3.51,18.67.93,13.56.76,10.62,1.07,16.11.09,1.57-5.67,3.21-6.54.78-3.8-10.63-9.08-32.88-8-45.16S259.84,203,259.84,203,265,195.73,268.76,192.23Z"/><path class="cls-139" d="M246.31,274.34c-.19,0-9.93-2.18-8.34,1.9a5.7,5.7,0,0,0,4.38,3.75c1.45.31,4.27,0,4.87.51S250.76,284,253,282a3.64,3.64,0,0,0,.82-2.61C253.74,278.51,247.43,274.33,246.31,274.34Z"/><path class="cls-140" d="M238,276.24a5.7,5.7,0,0,0,4.38,3.75c1.45.31,4.27,0,4.87.51S250.76,284,253,282a2.66,2.66,0,0,0,.66-1.23c-1.64,1.71-4.81.56-5.61-.26a5.3,5.3,0,0,0-3.65-1.55,7.38,7.38,0,0,1-5.23-2.42,2.37,2.37,0,0,1-.25-2.49A1.46,1.46,0,0,0,238,276.24Z"/><path class="cls-108" d="M266.13,203.49s6.47,6.88-5.12,24.3c0,0-5.62,12.39-5.42,16.35.24,4.75,2.15,5.19.28,20.7-1.64,13.48-1,13.77-2,14.89s-6.6,0-6.78-2.36c-1-13.18-3.09-32.56-1.9-44.82,1.37-14.09,2.37-25.66,2.37-25.66S261.87,206.24,266.13,203.49Z"/><path class="cls-107" d="M245.19,232.55c-1.19,12.26.87,31.64,1.9,44.82.08,1.05,1.2,1.85,2.51,2.33-.39-10.1-1.09-28.7-1.38-40.47-.3-12.41,4.19-26.44,6.57-33-3.91.47-7.23.62-7.23.62S246.56,218.46,245.19,232.55Z"/><path class="cls-109" d="M224.21,173.72a6.06,6.06,0,0,1-2.26-2,6.15,6.15,0,0,1-1.37-3.59c-.27-1.27-.27-2,.24-2.38.68-.43,2,.17,2.76,2.69s3.28,2.83,3.58,3.33S224.79,174,224.21,173.72Z"/><path class="cls-109" d="M224.46,171.35c-.29-.16.34-1.23-.6-3.8-.73-2,1.18.19,1.37.66s1.92,3.66,1.92,3.66A6.31,6.31,0,0,1,224.46,171.35Z"/><path class="cls-109" d="M262.27,204.33s-3,4.73-6,4.14-3.42-1.23-2.14-2.05,4.64-3.12,4-3.33-2.06.1-1.91-.51,4.42-1.44,4.42-1.44l3,1.44Z"/><path class="cls-115" d="M264.24,170.71s-.58-5.34,4.57-5.44c5.46-.1,4.24,11.29,4.24,11.29s-.27,9.83-1.25,12.89c-1.31,4.06-8.52,14.57-8.52,14.57s-3.22-.76-4.16-3.05c0,0,5.7-9.92,6.2-13.7C265.88,183.17,264.11,171.61,264.24,170.71Z"/><path class="cls-115" d="M263.28,204s7.21-10.51,8.52-14.57c1-3.06,1.25-12.89,1.25-12.89s1.94-11-4.22-11.48c-2.5-.21-2.9.86-3.51,1.67,4,.24,4.36,2.89,4,8.78-.4,6.41.43,8.22.07,13.7s-6.14,10.79-7,12.08c-.59.86-2-.19-2.87-1-.24.41-.37.65-.37.65C260.06,203.26,263.28,204,263.28,204Z"/><path class="cls-112" d="M246.64,177.45s-1.45-6,8.33-9.93,15.86-4,16.15,1.59-2,13.22-2.33,15.76c-.21,2,.7,3.51,2.54,12.53,1.26,6.16,2.84,11.29-12.78,12.77-2.74.25-12.08,1.22-11-5.34C250.72,184.54,248,184.11,246.64,177.45Z"/><path class="cls-109" d="M255.74,160.91s1.39,4.18-.62,6.93c-1.09,1.49,9.67,3.82,8.63-.56-.87-3.62.59-6.89,3.25-9.65Z"/><path class="cls-113" d="M256.21,163.94a18.31,18.31,0,0,0,4.18-1.51l.18.1,1,.25.38.14s-.56,4.49-6.3,4A9.17,9.17,0,0,0,256.21,163.94Z"/><path class="cls-109" d="M255.64,143.75s-1.75,2.84-4.11,7.65c-2.07,4.24-2.43,9.14.28,11.36,1.26,1,10.23,3.15,14.27-7.27C268.66,148.86,264.15,140.12,255.64,143.75Z"/><path class="cls-114" d="M253.78,144c-1.09.95-3.13,3.79-.35,5,3.94,1.72.91,6.94,2.23,8,.74.58.72-.45,2.68-1.86.78-.56,1.76-.2,1.94,2s-3.23,5.46-2.25,6.2,7.05-1.07,8.2-2.17c2.84-2.71,6.5-9.57,1.41-15.82C263.33,140,255.63,142.34,253.78,144Z"/><path class="cls-115" d="M254.67,176c.27-1.17.08-4.89-3.35-5.73-2.22-.55-14.66,9.76-16.26,9.57-.79-.1-7.93-9.15-7.93-9.15s.05,2.39-3.55,3.19c0,0,6.86,13.64,10.47,13.12C240.25,186.16,253.42,181.46,254.67,176Z"/><path class="cls-141" d="M280.13,254.11c13.7,7.91,13.78,20.74.17,28.64s-35.75,7.92-49.45,0-13.78-20.73-.16-28.64S266.44,246.2,280.13,254.11Z"/><g class="cls-127"><path class="cls-142" d="M282.67,239.23c15.12,8.72,15.2,22.87.18,31.59s-39.43,8.73-54.54,0-15.2-22.86-.18-31.59S267.57,230.51,282.67,239.23Z"/></g><g class="cls-129"><path class="cls-143" d="M285.21,224.35c16.53,9.54,16.62,25,.2,34.55s-43.12,9.54-59.64,0-16.61-25-.2-34.55S268.7,214.81,285.21,224.35Z"/></g><g class="cls-131"><path class="cls-144" d="M287.75,209.47c17.94,10.35,18,27.15.22,37.5s-46.81,10.35-64.74,0-18-27.15-.21-37.5S269.83,199.11,287.75,209.47Z"/></g><g class="cls-133"><path class="cls-145" d="M290.29,194.59c19.35,11.16,19.45,29.28.23,40.45s-50.49,11.17-69.83,0-19.45-29.28-.23-40.45S271,183.42,290.29,194.59Z"/></g><g class="cls-135"><path class="cls-146" d="M292.83,179.71c20.76,12,20.87,31.42.25,43.4s-54.17,12-74.93,0-20.86-31.42-.25-43.4S272.08,167.72,292.83,179.71Z"/></g><g class="cls-137"><path class="cls-48" d="M295.37,164.83c22.17,12.79,22.29,33.55.26,46.35s-57.85,12.8-80,0-22.28-33.55-.26-46.35S273.21,152,295.37,164.83Z"/></g></g></g></g></svg>